<mxfile host="app.diagrams.net" agent="Mozilla/5.0 (Windows NT 10.0; Win64; x64; rv:130.0) Gecko/20100101 Firefox/130.0" version="24.7.17">
  <diagram name="Page-1" id="q1TayNatM4KAD8dhx8Kc">
    <mxGraphModel dx="1228" dy="782" grid="1" gridSize="10" guides="1" tooltips="1" connect="1" arrows="1" fold="1" page="1" pageScale="1" pageWidth="827" pageHeight="1169" math="0" shadow="0">
      <root>
        <mxCell id="0" />
        <mxCell id="1" parent="0" />
        <mxCell id="1ygtTYAB4mYqMA_fCm9D-7" style="rounded=0;orthogonalLoop=1;jettySize=auto;html=1;entryX=0.5;entryY=0;entryDx=0;entryDy=0;" edge="1" parent="1" source="1ygtTYAB4mYqMA_fCm9D-1" target="1ygtTYAB4mYqMA_fCm9D-2">
          <mxGeometry relative="1" as="geometry" />
        </mxCell>
        <mxCell id="1ygtTYAB4mYqMA_fCm9D-1" value="" style="ellipse;html=1;shape=endState;fillColor=#000000;strokeColor=none;" vertex="1" parent="1">
          <mxGeometry x="364" y="20" width="46" height="50" as="geometry" />
        </mxCell>
        <mxCell id="1ygtTYAB4mYqMA_fCm9D-8" style="edgeStyle=orthogonalEdgeStyle;rounded=0;orthogonalLoop=1;jettySize=auto;html=1;entryX=0.5;entryY=0;entryDx=0;entryDy=0;" edge="1" parent="1" source="1ygtTYAB4mYqMA_fCm9D-2" target="1ygtTYAB4mYqMA_fCm9D-4">
          <mxGeometry relative="1" as="geometry" />
        </mxCell>
        <mxCell id="1ygtTYAB4mYqMA_fCm9D-2" value="Générer le plateau" style="rounded=1;whiteSpace=wrap;html=1;arcSize=40;fontColor=#000000;fillColor=#FFFFFF;strokeColor=#000000;" vertex="1" parent="1">
          <mxGeometry x="329" y="110" width="120" height="40" as="geometry" />
        </mxCell>
        <mxCell id="1ygtTYAB4mYqMA_fCm9D-12" style="rounded=0;orthogonalLoop=1;jettySize=auto;html=1;exitX=0;exitY=1;exitDx=0;exitDy=0;entryX=0.75;entryY=0;entryDx=0;entryDy=0;" edge="1" parent="1" source="1ygtTYAB4mYqMA_fCm9D-4" target="1ygtTYAB4mYqMA_fCm9D-9">
          <mxGeometry relative="1" as="geometry" />
        </mxCell>
        <mxCell id="1ygtTYAB4mYqMA_fCm9D-4" value="" style="rhombus;whiteSpace=wrap;html=1;fillColor=#CCCCCC;" vertex="1" parent="1">
          <mxGeometry x="363" y="190" width="51" height="60" as="geometry" />
        </mxCell>
        <mxCell id="1ygtTYAB4mYqMA_fCm9D-6" value="Décision du joueur" style="text;strokeColor=none;fillColor=none;align=left;verticalAlign=top;spacingLeft=4;spacingRight=4;overflow=hidden;rotatable=0;points=[[0,0.5],[1,0.5]];portConstraint=eastwest;whiteSpace=wrap;html=1;" vertex="1" parent="1">
          <mxGeometry x="430" y="207" width="150" height="26" as="geometry" />
        </mxCell>
        <mxCell id="1ygtTYAB4mYqMA_fCm9D-21" style="edgeStyle=orthogonalEdgeStyle;rounded=0;orthogonalLoop=1;jettySize=auto;html=1;entryX=0.5;entryY=0;entryDx=0;entryDy=0;" edge="1" parent="1" source="1ygtTYAB4mYqMA_fCm9D-9" target="1ygtTYAB4mYqMA_fCm9D-19">
          <mxGeometry relative="1" as="geometry" />
        </mxCell>
        <mxCell id="1ygtTYAB4mYqMA_fCm9D-9" value="Cliquer sur une case" style="rounded=1;whiteSpace=wrap;html=1;arcSize=40;fontColor=#000000;fillColor=#FFFFFF;strokeColor=#000000;" vertex="1" parent="1">
          <mxGeometry x="234" y="320" width="130" height="40" as="geometry" />
        </mxCell>
        <mxCell id="1ygtTYAB4mYqMA_fCm9D-10" value="Placer un drapeau" style="rounded=1;whiteSpace=wrap;html=1;arcSize=40;fontColor=#000000;fillColor=#FFFFFF;strokeColor=#000000;" vertex="1" parent="1">
          <mxGeometry x="400" y="320" width="120" height="40" as="geometry" />
        </mxCell>
        <mxCell id="1ygtTYAB4mYqMA_fCm9D-13" style="rounded=0;orthogonalLoop=1;jettySize=auto;html=1;exitX=1;exitY=1;exitDx=0;exitDy=0;" edge="1" parent="1" source="1ygtTYAB4mYqMA_fCm9D-4" target="1ygtTYAB4mYqMA_fCm9D-10">
          <mxGeometry relative="1" as="geometry">
            <mxPoint x="430" y="310" as="targetPoint" />
          </mxGeometry>
        </mxCell>
        <mxCell id="1ygtTYAB4mYqMA_fCm9D-18" value="" style="endArrow=classic;html=1;rounded=0;exitX=1;exitY=0.5;exitDx=0;exitDy=0;" edge="1" parent="1" source="1ygtTYAB4mYqMA_fCm9D-10">
          <mxGeometry width="50" height="50" relative="1" as="geometry">
            <mxPoint x="290" y="270" as="sourcePoint" />
            <mxPoint x="390" y="170" as="targetPoint" />
            <Array as="points">
              <mxPoint x="590" y="340" />
              <mxPoint x="590" y="290" />
              <mxPoint x="590" y="230" />
              <mxPoint x="590" y="170" />
            </Array>
          </mxGeometry>
        </mxCell>
        <mxCell id="1ygtTYAB4mYqMA_fCm9D-25" style="rounded=0;orthogonalLoop=1;jettySize=auto;html=1;exitX=0;exitY=1;exitDx=0;exitDy=0;entryX=0.75;entryY=0;entryDx=0;entryDy=0;" edge="1" parent="1" source="1ygtTYAB4mYqMA_fCm9D-19" target="1ygtTYAB4mYqMA_fCm9D-22">
          <mxGeometry relative="1" as="geometry" />
        </mxCell>
        <mxCell id="1ygtTYAB4mYqMA_fCm9D-28" style="rounded=0;orthogonalLoop=1;jettySize=auto;html=1;exitX=1;exitY=1;exitDx=0;exitDy=0;entryX=0.25;entryY=0;entryDx=0;entryDy=0;" edge="1" parent="1" source="1ygtTYAB4mYqMA_fCm9D-19" target="1ygtTYAB4mYqMA_fCm9D-27">
          <mxGeometry relative="1" as="geometry" />
        </mxCell>
        <mxCell id="1ygtTYAB4mYqMA_fCm9D-19" value="" style="rhombus;whiteSpace=wrap;html=1;fillColor=#CCCCCC;" vertex="1" parent="1">
          <mxGeometry x="273.5" y="420" width="51" height="60" as="geometry" />
        </mxCell>
        <mxCell id="1ygtTYAB4mYqMA_fCm9D-20" value="La case est-elle une bombe ?" style="text;strokeColor=none;fillColor=none;align=left;verticalAlign=top;spacingLeft=4;spacingRight=4;overflow=hidden;rotatable=0;points=[[0,0.5],[1,0.5]];portConstraint=eastwest;whiteSpace=wrap;html=1;" vertex="1" parent="1">
          <mxGeometry x="324.5" y="437" width="190" height="26" as="geometry" />
        </mxCell>
        <mxCell id="1ygtTYAB4mYqMA_fCm9D-22" value="Défaite !" style="rounded=1;whiteSpace=wrap;html=1;arcSize=40;fontColor=#000000;fillColor=#FFFFFF;strokeColor=#000000;" vertex="1" parent="1">
          <mxGeometry x="150" y="544.5" width="130" height="40" as="geometry" />
        </mxCell>
        <mxCell id="1ygtTYAB4mYqMA_fCm9D-26" value="&lt;div&gt;oui&lt;/div&gt;" style="text;strokeColor=none;fillColor=none;align=left;verticalAlign=top;spacingLeft=4;spacingRight=4;overflow=hidden;rotatable=0;points=[[0,0.5],[1,0.5]];portConstraint=eastwest;whiteSpace=wrap;html=1;" vertex="1" parent="1">
          <mxGeometry x="319.5" y="690" width="30" height="26" as="geometry" />
        </mxCell>
        <mxCell id="1ygtTYAB4mYqMA_fCm9D-31" style="edgeStyle=orthogonalEdgeStyle;rounded=0;orthogonalLoop=1;jettySize=auto;html=1;entryX=0.5;entryY=0;entryDx=0;entryDy=0;" edge="1" parent="1" source="1ygtTYAB4mYqMA_fCm9D-27" target="1ygtTYAB4mYqMA_fCm9D-30">
          <mxGeometry relative="1" as="geometry" />
        </mxCell>
        <mxCell id="1ygtTYAB4mYqMA_fCm9D-27" value="Révéler le nombre de bombes adjacentes" style="rounded=1;whiteSpace=wrap;html=1;arcSize=40;fontColor=#000000;fillColor=#FFFFFF;strokeColor=#000000;" vertex="1" parent="1">
          <mxGeometry x="310" y="545" width="130" height="40" as="geometry" />
        </mxCell>
        <mxCell id="1ygtTYAB4mYqMA_fCm9D-29" value="&lt;div&gt;non&lt;/div&gt;" style="text;strokeColor=none;fillColor=none;align=left;verticalAlign=top;spacingLeft=4;spacingRight=4;overflow=hidden;rotatable=0;points=[[0,0.5],[1,0.5]];portConstraint=eastwest;whiteSpace=wrap;html=1;" vertex="1" parent="1">
          <mxGeometry x="333" y="490" width="30" height="26" as="geometry" />
        </mxCell>
        <mxCell id="1ygtTYAB4mYqMA_fCm9D-30" value="" style="rhombus;whiteSpace=wrap;html=1;fillColor=#CCCCCC;" vertex="1" parent="1">
          <mxGeometry x="349.5" y="630" width="51" height="60" as="geometry" />
        </mxCell>
        <mxCell id="1ygtTYAB4mYqMA_fCm9D-32" value="Le joueur a t&#39;il découvert toutes les bombes ?" style="text;strokeColor=none;fillColor=none;align=left;verticalAlign=top;spacingLeft=4;spacingRight=4;overflow=hidden;rotatable=0;points=[[0,0.5],[1,0.5]];portConstraint=eastwest;whiteSpace=wrap;html=1;" vertex="1" parent="1">
          <mxGeometry x="400.5" y="638.5" width="159.5" height="43" as="geometry" />
        </mxCell>
        <mxCell id="1ygtTYAB4mYqMA_fCm9D-39" style="edgeStyle=orthogonalEdgeStyle;rounded=0;orthogonalLoop=1;jettySize=auto;html=1;entryX=0.5;entryY=0;entryDx=0;entryDy=0;" edge="1" parent="1" source="1ygtTYAB4mYqMA_fCm9D-33" target="1ygtTYAB4mYqMA_fCm9D-38">
          <mxGeometry relative="1" as="geometry" />
        </mxCell>
        <mxCell id="1ygtTYAB4mYqMA_fCm9D-33" value="Victoire !" style="rounded=1;whiteSpace=wrap;html=1;arcSize=40;fontColor=#000000;fillColor=#FFFFFF;strokeColor=#000000;" vertex="1" parent="1">
          <mxGeometry x="234" y="740" width="130" height="40" as="geometry" />
        </mxCell>
        <mxCell id="1ygtTYAB4mYqMA_fCm9D-34" style="rounded=0;orthogonalLoop=1;jettySize=auto;html=1;exitX=0;exitY=1;exitDx=0;exitDy=0;entryX=0.838;entryY=0;entryDx=0;entryDy=0;entryPerimeter=0;" edge="1" parent="1" source="1ygtTYAB4mYqMA_fCm9D-30" target="1ygtTYAB4mYqMA_fCm9D-33">
          <mxGeometry relative="1" as="geometry" />
        </mxCell>
        <mxCell id="1ygtTYAB4mYqMA_fCm9D-35" value="&lt;div&gt;oui&lt;/div&gt;" style="text;strokeColor=none;fillColor=none;align=left;verticalAlign=top;spacingLeft=4;spacingRight=4;overflow=hidden;rotatable=0;points=[[0,0.5],[1,0.5]];portConstraint=eastwest;whiteSpace=wrap;html=1;" vertex="1" parent="1">
          <mxGeometry x="240" y="500" width="30" height="26" as="geometry" />
        </mxCell>
        <mxCell id="1ygtTYAB4mYqMA_fCm9D-36" value="" style="endArrow=none;html=1;rounded=0;exitX=1;exitY=1;exitDx=0;exitDy=0;endFill=0;" edge="1" parent="1" source="1ygtTYAB4mYqMA_fCm9D-30">
          <mxGeometry width="50" height="50" relative="1" as="geometry">
            <mxPoint x="290" y="570" as="sourcePoint" />
            <mxPoint x="590" y="320" as="targetPoint" />
            <Array as="points">
              <mxPoint x="410" y="720" />
              <mxPoint x="590" y="720" />
            </Array>
          </mxGeometry>
        </mxCell>
        <mxCell id="1ygtTYAB4mYqMA_fCm9D-37" value="non" style="text;strokeColor=none;fillColor=none;align=left;verticalAlign=top;spacingLeft=4;spacingRight=4;overflow=hidden;rotatable=0;points=[[0,0.5],[1,0.5]];portConstraint=eastwest;whiteSpace=wrap;html=1;" vertex="1" parent="1">
          <mxGeometry x="407" y="716" width="30" height="26" as="geometry" />
        </mxCell>
        <mxCell id="1ygtTYAB4mYqMA_fCm9D-38" value="" style="ellipse;html=1;shape=endState;fillColor=#000000;strokeColor=#000000;" vertex="1" parent="1">
          <mxGeometry x="284" y="850" width="30" height="30" as="geometry" />
        </mxCell>
      </root>
    </mxGraphModel>
  </diagram>
</mxfile>
